<?xml version="1.0" encoding="utf-8"?>
<!-- Generator: Adobe Illustrator 19.0.0, SVG Export Plug-In . SVG Version: 6.00 Build 0)  -->
<svg version="1.1" id="Layer_1" xmlns="http://www.w3.org/2000/svg" xmlns:xlink="http://www.w3.org/1999/xlink" x="0px" y="0px"
	 viewBox="248 -246 512 512" style="enable-background:new 248 -246 512 512;" xml:space="preserve">
<style type="text/css">
	.st0{fill:#FFFFFF;}
</style>
<g id="surface1">
	<path class="st0" d="M652.6,187.4L605,91.8C654.7,59,687.5,2.5,687.5-61.4C687.5-162.6,605.2-245,504-245S320.5-162.7,320.5-61.5
		c0,32.6,8.7,64.6,25.1,92.6c14.2,24.3,34,45.3,57.4,60.8l-47.6,95.5H280v15h480v-15H652.6z M511,106.8v-17
		c37-1.8,69.2-16.3,94.4-39.1l11.9,12C589,88.6,552,105,511,106.8z M463.2,68.7l45.6-91.1c6.9-0.8,13.3-3.5,18.7-7.5L571,57.3
		c-3.9,2.2-8,4.3-12.2,6.1L522.7-8.9l-13.4,6.7l35.5,70.9c-12.9,4-26.6,6.2-40.8,6.2C490.1,74.9,476.4,72.9,463.2,68.7z M496,89.7
		v17c-16-0.7-32.2-3.8-47.6-9.1l7.8-15.4C469.1,86.6,483,89.1,496,89.7z M504-37.1c-13.5,0-24.5-11-24.5-24.5s11-24.5,24.5-24.5
		s24.5,11,24.5,24.5S517.5-37.1,504-37.1z M628.3,52.5l-12-12.2c22.8-25.2,37.3-57.9,39.1-93.9h17C670.5-13.6,654.1,24.2,628.3,52.5
		z M672.3-68.6h-17c-1.8-37-16.3-69.2-39.1-94.4l12-11.9C654.1-146.6,670.5-109.6,672.3-68.6z M511-229.9c41,1.8,78,18.2,106.3,44.1
		l-11.9,12c-25.2-22.8-57.4-37.3-94.4-39.1V-229.9z M640.5-61.6c0,45.5-22.4,85.9-56.8,110.7l-45.5-91c3.3-5.8,5.3-12.5,5.3-19.7
		c0-21.8-17.7-39.5-39.5-39.5s-39.5,17.7-39.5,39.5c0,7.2,1.9,13.9,5.3,19.7l-45.5,91.1c-35.6-25.7-56.7-66.7-56.7-110.8
		c0-75.3,61.2-136.5,136.5-136.5C579.3-198.1,640.5-136.8,640.5-61.6z M496-229.9v17c-36,1.8-68.7,16.3-93.9,39.1l-12.2-12
		C418.2-211.7,456-228.1,496-229.9z M379.7-175l12,12.2c-22.8,25.2-37.3,57.3-39.1,94.3h-17C337.5-109.6,353.9-146.7,379.7-175z
		 M358.5,23.8c-13.8-23.5-21.6-50.4-22.8-77.4h17c1.7,35,15.7,68.2,39,94l-12,11.9C371.7,43.5,364.5,34.1,358.5,23.8z M390.3,62.8
		l12-12c4.8,4.3,9.8,8.3,15.1,12l-7.7,15.4C402.9,73.5,396.4,68.3,390.3,62.8z M372.1,187.4l108.4-217c3.6,2.7,7.7,4.9,12.2,6.2
		L387.4,187.4H372.1z M404.1,187.4l37.9-76c19.8,7.1,40.7,10.6,62,10.6c21.7,0,42.6-3.6,62-10.6l37.9,76H404.1z M620.6,187.4
		l-40.7-81.7c4.1-1.9,8.2-3.8,12.2-6l43.8,87.7H620.6z"/>
	<path class="st0" d="M248,187.4h16v15h-16V187.4z"/>
	<path class="st0" d="M608.5-61.6h15c0-65.9-53.6-119.5-119.5-119.5v15C561.6-166.1,608.5-119.2,608.5-61.6z"/>
	<path class="st0" d="M424-12.6h16v15h-16V-12.6z"/>
	<path class="st0" d="M408,3.4h16v15h-16V3.4z"/>
	<path class="st0" d="M496-68.6h16v15h-16V-68.6z"/>
</g>
</svg>
